<?xml version="1.0" encoding="UTF-8" standalone="no"?>
<!-- Created with Inkscape (http://www.inkscape.org/) -->

<svg
   width="1.939613mm"
   height="1.669764mm"
   viewBox="0 0 1.939613 1.669764"
   version="1.1"
   id="svg1"
   inkscape:version="1.4 (e7c3feb1, 2024-10-09)"
   sodipodi:docname="menu.svg"
   xmlns:inkscape="http://www.inkscape.org/namespaces/inkscape"
   xmlns:sodipodi="http://sodipodi.sourceforge.net/DTD/sodipodi-0.dtd"
   xmlns="http://www.w3.org/2000/svg"
   xmlns:svg="http://www.w3.org/2000/svg">
  <sodipodi:namedview
     id="namedview1"
     pagecolor="#ffffff"
     bordercolor="#000000"
     borderopacity="0.25"
     inkscape:showpageshadow="2"
     inkscape:pageopacity="0.0"
     inkscape:pagecheckerboard="0"
     inkscape:deskcolor="#d1d1d1"
     inkscape:document-units="mm"
     inkscape:zoom="32.362426"
     inkscape:cx="7.9104083"
     inkscape:cy="5.3457056"
     inkscape:window-width="1512"
     inkscape:window-height="945"
     inkscape:window-x="0"
     inkscape:window-y="37"
     inkscape:window-maximized="0"
     inkscape:current-layer="layer1" />
  <defs
     id="defs1" />
  <g
     inkscape:label="Calque 1"
     inkscape:groupmode="layer"
     id="layer1"
     transform="translate(-13.739085,-13.900665)">
    <path
       id="text1-3-3"
       style="-inkscape-font-specification:'Oceanside Typewriter';stroke-width:0.264583"
       d="m 14.88935,15.238709 0.164331,0.02481 q 0.06821,-0.0124 0.10697,-0.0124 h 0.0078 q 0.03721,0 0.150378,0.0124 0.03101,-0.0047 0.06046,-0.0047 0.04806,0 0.08837,0.0124 l 0.148829,0.05271 q 0.04961,0.05736 0.04961,0.09922 0,0.03411 -0.03411,0.05891 -0.06821,0.04961 -0.275952,0.04961 h -0.04806 q -0.142627,0.03876 -0.175183,0.03876 l -0.127124,-0.01705 q -0.122473,0.01705 -0.165881,0.01705 -0.0155,0 -0.150379,-0.02791 l -0.16123,0.0217 q -0.221692,-0.0047 -0.288355,-0.03566 -0.02325,-0.0124 -0.03566,-0.0124 l -0.07906,0.0248 -0.117823,-0.0186 q -0.192236,-0.04961 -0.244946,-0.07286 -0.02325,-0.02945 -0.02325,-0.05581 0,-0.02015 0.0155,-0.04031 0.03566,-0.04031 0.21084,-0.08217 0.21239,0.0047 0.238745,0.0047 0.124023,-0.03101 0.164331,-0.03101 l 0.170532,0.03411 q 0.141077,-0.02791 0.165881,-0.02791 l 0.09767,0.01705 q 0.05736,-0.02946 0.08682,-0.02946 z m 0.003,-0.685218 0.164331,0.02481 q 0.06821,-0.0124 0.10697,-0.0124 h 0.0078 q 0.03721,0 0.150379,0.0124 0.03101,-0.0047 0.06046,-0.0047 0.04806,0 0.08837,0.0124 l 0.148828,0.05271 q 0.04961,0.05736 0.04961,0.09922 0,0.03411 -0.03411,0.05891 -0.06821,0.04961 -0.275952,0.04961 h -0.04806 q -0.142627,0.03876 -0.175183,0.03876 l -0.127124,-0.01705 q -0.122473,0.01705 -0.165882,0.01705 -0.0155,0 -0.150378,-0.02791 l -0.161231,0.0217 q -0.221691,-0.0047 -0.288354,-0.03566 -0.02325,-0.0124 -0.03566,-0.0124 l -0.07906,0.0248 -0.117822,-0.0186 q -0.192236,-0.04961 -0.244946,-0.07286 -0.02326,-0.02946 -0.02326,-0.05581 0,-0.02015 0.0155,-0.04031 0.03566,-0.04031 0.21084,-0.08216 0.21239,0.0046 0.238745,0.0046 0.124024,-0.03101 0.164331,-0.03101 l 0.170533,0.03411 q 0.141076,-0.02791 0.165881,-0.02791 l 0.09767,0.01705 q 0.05736,-0.02946 0.08682,-0.02946 z m 0.0096,-0.652806 0.164331,0.02481 q 0.06821,-0.0124 0.106971,-0.0124 h 0.0078 q 0.03721,0 0.150378,0.0124 0.03101,-0.0047 0.06046,-0.0047 0.04806,0 0.08837,0.0124 l 0.148828,0.05271 q 0.04961,0.05736 0.04961,0.09922 0,0.03411 -0.03411,0.05891 -0.06821,0.04961 -0.275953,0.04961 h -0.04806 q -0.142627,0.03876 -0.175183,0.03876 l -0.127124,-0.01705 q -0.122473,0.01705 -0.165881,0.01705 -0.0155,0 -0.150379,-0.02791 l -0.16123,0.0217 q -0.221692,-0.0047 -0.288354,-0.03566 -0.02326,-0.0124 -0.03566,-0.0124 l -0.07906,0.0248 -0.117822,-0.0186 q -0.192237,-0.04961 -0.244947,-0.07286 -0.02325,-0.02946 -0.02325,-0.05581 0,-0.02015 0.0155,-0.04031 0.03566,-0.04031 0.21084,-0.08217 0.21239,0.0047 0.238745,0.0047 0.124023,-0.03101 0.164331,-0.03101 l 0.170532,0.03411 q 0.141077,-0.02791 0.165881,-0.02791 l 0.09767,0.01705 q 0.05736,-0.02946 0.08682,-0.02946 z" />
  </g>
</svg>
